<svg xmlns="http://www.w3.org/2000/svg" xmlns:xlink="http://www.w3.org/1999/xlink" width="500" zoomAndPan="magnify" viewBox="0 0 375 374.999991" height="500" preserveAspectRatio="xMidYMid meet" version="1.0"><defs><g/><clipPath id="fa8fc68815"><path d="M 2 48.144531 L 375 48.144531 L 375 318.894531 L 2 318.894531 Z M 2 48.144531 " clip-rule="nonzero"/></clipPath><clipPath id="321a2919c9"><path d="M 1 0.144531 L 372 0.144531 L 372 270.894531 L 1 270.894531 Z M 1 0.144531 " clip-rule="nonzero"/></clipPath><clipPath id="c77d9cfb6d"><rect x="0" width="373" y="0" height="271"/></clipPath></defs><g clip-path="url(#fa8fc68815)"><g transform="matrix(1, 0, 0, 1, 2, 48)"><g clip-path="url(#c77d9cfb6d)"><g clip-path="url(#321a2919c9)"><path fill="#1800ad" d="M 89.058594 271.121094 L 82.539062 265.882812 C 58.328125 246.914062 40.78125 229.609375 29.894531 213.976562 C 21.15625 203.222656 13.507812 185.402344 6.949219 160.515625 C 0.996094 131.457031 -0.394531 107.175781 2.777344 87.664062 C 5.316406 69.964844 14.316406 54.210938 29.785156 40.402344 C 45.269531 26.878906 61.800781 17.460938 79.371094 12.15625 C 96.234375 5.457031 124.3125 1.453125 163.609375 0.144531 C 246.761719 0.40625 305.304688 11.921875 339.242188 34.691406 C 361.742188 50.121094 372.644531 79.457031 371.949219 122.703125 C 371.351562 146.832031 369.234375 163.679688 365.597656 173.246094 C 359.980469 188.675781 355.945312 197.441406 353.492188 199.539062 C 349.964844 204.746094 345.792969 209.359375 340.972656 213.371094 C 328.6875 224.558594 306.527344 231.605469 274.492188 234.503906 C 264.820312 235.386719 250.976562 235.625 232.964844 235.21875 L 144.125 230.933594 C 132.363281 230.601562 122.109375 231.261719 113.359375 232.917969 C 103.820312 234.9375 97.296875 239.171875 93.78125 245.628906 C 90.757812 250.695312 89.183594 259.195312 89.058594 271.121094 " fill-opacity="1" fill-rule="nonzero"/></g></g></g></g><g fill="#1800ad" fill-opacity="1"><g transform="translate(90.080917, 140.300206)"><g><path d="M 39.691406 -57.859375 C 43.296875 -57.859375 46.636719 -57.101562 49.710938 -55.582031 C 52.9375 -53.984375 55.511719 -51.71875 57.429688 -48.785156 C 59.410156 -45.761719 60.398438 -42.40625 60.398438 -38.722656 C 60.398438 -34.164062 59.273438 -30.316406 57.023438 -27.191406 C 54.714844 -23.972656 51.402344 -21.746094 47.089844 -20.507812 L 45.289062 -26.785156 L 51.816406 -26.785156 L 51.816406 -26.488281 L 45.289062 -26.488281 L 46.746094 -32.851562 C 51.539062 -31.753906 55.230469 -29.507812 57.8125 -26.113281 C 60.332031 -22.808594 61.589844 -18.652344 61.589844 -13.652344 C 61.589844 -9.695312 60.589844 -6.148438 58.585938 -3.015625 C 56.621094 0.0625 53.957031 2.441406 50.59375 4.125 C 47.386719 5.726562 43.902344 6.527344 40.140625 6.527344 L -1.007812 6.527344 L -1.007812 -57.859375 Z M 39.691406 -44.804688 L 5.519531 -44.804688 L 5.519531 -51.332031 L 12.050781 -51.332031 L 12.050781 0 L 5.519531 0 L 5.519531 -6.527344 L 40.140625 -6.527344 C 41.847656 -6.527344 43.386719 -6.871094 44.757812 -7.554688 C 45.96875 -8.160156 46.910156 -8.992188 47.582031 -10.042969 C 48.214844 -11.035156 48.535156 -12.238281 48.535156 -13.652344 C 48.535156 -15.714844 48.164062 -17.234375 47.425781 -18.203125 C 46.75 -19.089844 45.550781 -19.726562 43.832031 -20.121094 L 38.757812 -21.285156 L 38.757812 -31.703125 L 43.488281 -33.058594 C 44.894531 -33.464844 45.875 -34.046875 46.421875 -34.8125 C 47.035156 -35.664062 47.339844 -36.964844 47.339844 -38.722656 C 47.339844 -39.8125 47.058594 -40.785156 46.5 -41.640625 C 45.882812 -42.585938 45.023438 -43.332031 43.925781 -43.875 C 42.671875 -44.492188 41.261719 -44.804688 39.691406 -44.804688 Z M 22.011719 -37.863281 L 33.351562 -37.863281 C 33.011719 -37.863281 32.660156 -37.789062 32.300781 -37.632812 C 31.90625 -37.46875 31.574219 -37.238281 31.304688 -36.953125 C 31.078125 -36.707031 30.898438 -36.417969 30.777344 -36.089844 C 30.675781 -35.828125 30.628906 -35.585938 30.628906 -35.363281 L 30.628906 -36.109375 C 30.628906 -35.820312 30.6875 -35.519531 30.8125 -35.207031 C 30.945312 -34.878906 31.121094 -34.597656 31.34375 -34.367188 C 31.578125 -34.128906 31.871094 -33.933594 32.222656 -33.78125 C 32.601562 -33.617188 32.976562 -33.535156 33.351562 -33.535156 L 22.011719 -33.535156 L 22.011719 -40.066406 L 28.539062 -40.066406 L 28.539062 -31.335938 L 22.011719 -31.335938 Z M 15.480469 -24.808594 L 15.480469 -46.59375 L 33.351562 -46.59375 C 34.769531 -46.59375 36.117188 -46.320312 37.386719 -45.773438 C 38.636719 -45.234375 39.75 -44.460938 40.726562 -43.449219 C 41.695312 -42.449219 42.433594 -41.316406 42.9375 -40.054688 C 43.4375 -38.8125 43.683594 -37.496094 43.683594 -36.109375 L 43.683594 -35.363281 C 43.683594 -32.503906 42.738281 -30.058594 40.839844 -28.03125 C 39.851562 -26.972656 38.707031 -26.167969 37.402344 -25.617188 C 36.136719 -25.078125 34.785156 -24.808594 33.351562 -24.808594 Z M 22.011719 -18.464844 L 34.542969 -18.464844 C 34.207031 -18.464844 33.855469 -18.390625 33.492188 -18.234375 C 33.101562 -18.070312 32.769531 -17.839844 32.5 -17.554688 C 32.269531 -17.308594 32.09375 -17.019531 31.96875 -16.691406 C 31.871094 -16.429688 31.820312 -16.1875 31.820312 -15.964844 L 31.820312 -16.710938 C 31.820312 -16.492188 31.871094 -16.25 31.96875 -15.988281 C 32.09375 -15.65625 32.269531 -15.371094 32.5 -15.125 C 32.769531 -14.835938 33.101562 -14.609375 33.492188 -14.441406 C 33.855469 -14.289062 34.207031 -14.210938 34.542969 -14.210938 L 22.011719 -14.210938 L 22.011719 -20.742188 L 28.539062 -20.742188 L 28.539062 -11.9375 L 22.011719 -11.9375 Z M 15.480469 -5.410156 L 15.480469 -27.269531 L 34.542969 -27.269531 C 35.976562 -27.269531 37.328125 -27 38.597656 -26.460938 C 39.898438 -25.910156 41.046875 -25.105469 42.035156 -24.046875 C 43.929688 -22.019531 44.878906 -19.574219 44.878906 -16.710938 L 44.878906 -15.964844 C 44.878906 -13.105469 43.929688 -10.660156 42.035156 -8.632812 C 41.046875 -7.574219 39.898438 -6.769531 38.597656 -6.21875 C 37.328125 -5.679688 35.976562 -5.410156 34.542969 -5.410156 Z M 15.480469 -5.410156 "/></g></g></g><g fill="#1800ad" fill-opacity="1"><g transform="translate(148.120907, 140.300206)"><g><path d="M 26.609375 1.046875 L 25.636719 -4.921875 L 32.082031 -5.96875 L 37.378906 -2.152344 C 35.195312 0.878906 32.351562 3.242188 28.851562 4.941406 C 25.441406 6.597656 21.839844 7.425781 18.054688 7.425781 C 11.542969 7.425781 6.496094 5.4375 2.910156 1.464844 C -0.496094 -2.316406 -2.203125 -7.429688 -2.203125 -13.878906 L -2.203125 -45.921875 L 25.703125 -45.921875 L 25.703125 -15.667969 C 25.703125 -15.554688 25.707031 -15.460938 25.71875 -15.386719 L 25.71875 -15.378906 C 25.667969 -15.53125 25.578125 -15.6875 25.445312 -15.839844 C 25.203125 -16.125 24.90625 -16.339844 24.554688 -16.488281 C 24.429688 -16.539062 24.316406 -16.574219 24.207031 -16.59375 C 24.183594 -16.597656 24.164062 -16.601562 24.144531 -16.601562 C 24.148438 -16.601562 24.160156 -16.601562 24.171875 -16.601562 C 24.246094 -16.601562 24.300781 -16.605469 24.335938 -16.609375 C 24.316406 -16.605469 24.289062 -16.597656 24.25 -16.582031 C 24.121094 -16.53125 24.015625 -16.464844 23.9375 -16.378906 C 23.910156 -16.351562 23.882812 -16.300781 23.855469 -16.230469 C 23.84375 -16.199219 23.835938 -16.175781 23.832031 -16.15625 C 23.835938 -16.179688 23.835938 -16.214844 23.835938 -16.265625 L 23.835938 -45.921875 L 51.742188 -45.921875 L 51.742188 6.527344 L 27.5 6.527344 Z M 39.496094 -1.046875 L 33.050781 0 L 33.050781 -6.527344 L 45.214844 -6.527344 L 45.214844 0 L 38.683594 0 L 38.683594 -39.394531 L 45.214844 -39.394531 L 45.214844 -32.867188 L 30.367188 -32.867188 L 30.367188 -39.394531 L 36.894531 -39.394531 L 36.894531 -16.265625 C 36.894531 -12.773438 35.71875 -9.800781 33.363281 -7.34375 C 32.140625 -6.070312 30.71875 -5.105469 29.097656 -4.457031 C 27.574219 -3.847656 25.933594 -3.542969 24.171875 -3.542969 C 22.511719 -3.542969 20.972656 -3.835938 19.558594 -4.421875 C 17.976562 -5.078125 16.628906 -6.058594 15.515625 -7.363281 C 13.601562 -9.601562 12.644531 -12.371094 12.644531 -15.667969 L 12.644531 -39.394531 L 19.175781 -39.394531 L 19.175781 -32.867188 L 4.328125 -32.867188 L 4.328125 -39.394531 L 10.855469 -39.394531 L 10.855469 -13.878906 C 10.855469 -10.773438 11.441406 -8.578125 12.609375 -7.28125 C 13.597656 -6.183594 15.414062 -5.632812 18.054688 -5.632812 C 19.839844 -5.632812 21.539062 -6.023438 23.152344 -6.804688 C 24.675781 -7.546875 25.886719 -8.539062 26.785156 -9.785156 L 36 -22.566406 Z M 39.496094 -1.046875 "/></g></g></g><g fill="#1800ad" fill-opacity="1"><g transform="translate(197.880124, 140.300206)"><g><path d="M 24.84375 -46.816406 C 32.667969 -46.816406 39.136719 -45.054688 44.257812 -41.523438 C 47.21875 -39.480469 49.449219 -36.878906 50.953125 -33.71875 C 52.375 -30.722656 53.085938 -27.320312 53.085938 -23.503906 L 53.085938 -16.972656 L 25.628906 -16.972656 L 25.628906 -23.503906 C 25.628906 -23.855469 25.605469 -24.09375 25.5625 -24.210938 C 25.621094 -24.050781 25.738281 -23.890625 25.914062 -23.730469 C 25.992188 -23.65625 26.074219 -23.597656 26.148438 -23.554688 L 26.132812 -23.554688 C 25.839844 -23.644531 25.414062 -23.6875 24.84375 -23.6875 C 24.433594 -23.6875 24.148438 -23.65625 23.988281 -23.597656 C 24.089844 -23.632812 24.191406 -23.714844 24.292969 -23.832031 C 24.324219 -23.867188 24.34375 -23.894531 24.351562 -23.910156 C 24.324219 -23.855469 24.292969 -23.773438 24.261719 -23.660156 C 24.128906 -23.199219 24.0625 -22.574219 24.0625 -21.785156 L 24.0625 -17.535156 C 24.0625 -16.785156 24.125 -16.199219 24.257812 -15.773438 C 24.285156 -15.679688 24.308594 -15.613281 24.332031 -15.570312 C 24.320312 -15.59375 24.296875 -15.625 24.261719 -15.664062 C 24.179688 -15.753906 24.109375 -15.8125 24.058594 -15.832031 C 24.285156 -15.746094 24.648438 -15.707031 25.144531 -15.707031 C 25.773438 -15.707031 26.253906 -15.757812 26.59375 -15.859375 C 26.628906 -15.867188 26.65625 -15.878906 26.679688 -15.886719 L 26.671875 -15.882812 C 26.613281 -15.851562 26.546875 -15.804688 26.476562 -15.742188 C 26.316406 -15.59375 26.207031 -15.449219 26.152344 -15.300781 C 26.203125 -15.429688 26.226562 -15.675781 26.226562 -16.042969 L 26.226562 -22.570312 L 53.085938 -22.570312 L 53.085938 -16.042969 C 53.085938 -12.207031 52.378906 -8.789062 50.960938 -5.78125 C 49.464844 -2.601562 47.238281 0.0195312 44.277344 2.078125 C 39.152344 5.640625 32.675781 7.425781 24.84375 7.425781 C 16.28125 7.425781 9.414062 5.136719 4.25 0.558594 C 1.488281 -1.886719 -0.574219 -4.886719 -1.9375 -8.445312 C -3.207031 -11.757812 -3.84375 -15.507812 -3.84375 -19.695312 C -3.84375 -23.886719 -3.207031 -27.636719 -1.9375 -30.949219 C -0.574219 -34.503906 1.488281 -37.507812 4.25 -39.953125 C 9.414062 -44.53125 16.28125 -46.816406 24.84375 -46.816406 Z M 24.84375 -33.761719 C 19.582031 -33.761719 15.605469 -32.566406 12.910156 -30.179688 C 10.445312 -27.996094 9.214844 -24.503906 9.214844 -19.695312 C 9.214844 -14.890625 10.445312 -11.398438 12.910156 -9.214844 C 15.605469 -6.828125 19.582031 -5.632812 24.84375 -5.632812 C 29.945312 -5.632812 33.9375 -6.636719 36.820312 -8.640625 C 37.867188 -9.371094 38.644531 -10.269531 39.148438 -11.34375 C 39.734375 -12.589844 40.027344 -14.15625 40.027344 -16.042969 L 46.558594 -16.042969 L 46.558594 -9.511719 L 32.753906 -9.511719 L 32.753906 -16.042969 L 39.28125 -16.042969 C 39.28125 -14.117188 38.988281 -12.363281 38.402344 -10.773438 C 37.714844 -8.910156 36.652344 -7.335938 35.222656 -6.046875 C 32.714844 -3.78125 29.351562 -2.648438 25.144531 -2.648438 C 23.105469 -2.648438 21.246094 -2.953125 19.570312 -3.566406 C 17.617188 -4.285156 15.960938 -5.382812 14.609375 -6.871094 C 12.207031 -9.507812 11.003906 -13.0625 11.003906 -17.535156 L 11.003906 -21.785156 C 11.003906 -26.222656 12.144531 -29.753906 14.429688 -32.386719 C 15.75 -33.910156 17.375 -35.042969 19.304688 -35.785156 C 20.972656 -36.425781 22.820312 -36.746094 24.84375 -36.746094 C 28.976562 -36.746094 32.277344 -35.613281 34.746094 -33.347656 C 36.136719 -32.066406 37.167969 -30.507812 37.835938 -28.667969 C 38.402344 -27.109375 38.6875 -25.386719 38.6875 -23.503906 L 32.15625 -23.503906 L 32.15625 -30.03125 L 46.558594 -30.03125 L 46.558594 -23.503906 L 40.027344 -23.503906 C 40.027344 -25.355469 39.738281 -26.894531 39.15625 -28.117188 C 38.65625 -29.167969 37.886719 -30.054688 36.84375 -30.773438 C 33.957031 -32.765625 29.957031 -33.761719 24.84375 -33.761719 Z M 24.84375 -33.761719 "/></g></g></g><g fill="#1800ad" fill-opacity="1"><g transform="translate(246.370969, 140.300206)"><g><path d="M 31.933594 -45.921875 L 64.070312 -45.921875 L 39.507812 -19.09375 L 34.695312 -23.503906 L 40.207031 -27 L 61.496094 6.527344 L 29.097656 6.527344 L 18.90625 -10.089844 L 24.472656 -13.503906 L 29.019531 -8.820312 L 23.871094 -3.820312 L 19.324219 -8.503906 L 25.851562 -8.503906 L 25.851562 6.527344 L -2.050781 6.527344 L -2.050781 -60.695312 L 25.851562 -60.695312 L 25.851562 -24.324219 L 19.324219 -24.324219 L 14.316406 -28.511719 L 28.882812 -45.921875 Z M 31.933594 -32.867188 L 31.933594 -39.394531 L 36.941406 -35.203125 L 12.796875 -6.34375 L 12.796875 -54.167969 L 19.324219 -54.167969 L 19.324219 -47.636719 L 4.476562 -47.636719 L 4.476562 -54.167969 L 11.003906 -54.167969 L 11.003906 0 L 4.476562 0 L 4.476562 -6.527344 L 19.324219 -6.527344 L 19.324219 0 L 12.796875 0 L 12.796875 -11.265625 L 25.773438 -23.871094 L 38.320312 -3.414062 L 32.753906 0 L 32.753906 -6.527344 L 49.617188 -6.527344 L 49.617188 0 L 44.105469 3.5 L 26.503906 -24.222656 L 44.425781 -43.800781 L 49.242188 -39.394531 L 49.242188 -32.867188 Z M 31.933594 -32.867188 "/></g></g></g><g fill="#1800ad" fill-opacity="1"><g transform="translate(90.080917, 244.550199)"><g><path d="M 39.691406 -57.859375 C 43.296875 -57.859375 46.636719 -57.101562 49.710938 -55.582031 C 52.9375 -53.984375 55.511719 -51.71875 57.429688 -48.785156 C 59.410156 -45.761719 60.398438 -42.40625 60.398438 -38.722656 C 60.398438 -34.164062 59.273438 -30.316406 57.023438 -27.191406 C 54.714844 -23.972656 51.402344 -21.746094 47.089844 -20.507812 L 45.289062 -26.785156 L 51.816406 -26.785156 L 51.816406 -26.488281 L 45.289062 -26.488281 L 46.746094 -32.851562 C 51.539062 -31.753906 55.230469 -29.507812 57.8125 -26.113281 C 60.332031 -22.808594 61.589844 -18.652344 61.589844 -13.652344 C 61.589844 -9.695312 60.589844 -6.148438 58.585938 -3.015625 C 56.621094 0.0625 53.957031 2.441406 50.59375 4.125 C 47.386719 5.726562 43.902344 6.527344 40.140625 6.527344 L -1.007812 6.527344 L -1.007812 -57.859375 Z M 39.691406 -44.804688 L 5.519531 -44.804688 L 5.519531 -51.332031 L 12.050781 -51.332031 L 12.050781 0 L 5.519531 0 L 5.519531 -6.527344 L 40.140625 -6.527344 C 41.847656 -6.527344 43.386719 -6.871094 44.757812 -7.554688 C 45.96875 -8.160156 46.910156 -8.992188 47.582031 -10.042969 C 48.214844 -11.035156 48.535156 -12.238281 48.535156 -13.652344 C 48.535156 -15.714844 48.164062 -17.234375 47.425781 -18.203125 C 46.75 -19.089844 45.550781 -19.726562 43.832031 -20.121094 L 38.757812 -21.285156 L 38.757812 -31.703125 L 43.488281 -33.058594 C 44.894531 -33.464844 45.875 -34.046875 46.421875 -34.8125 C 47.035156 -35.664062 47.339844 -36.964844 47.339844 -38.722656 C 47.339844 -39.8125 47.058594 -40.785156 46.5 -41.640625 C 45.882812 -42.585938 45.023438 -43.332031 43.925781 -43.875 C 42.671875 -44.492188 41.261719 -44.804688 39.691406 -44.804688 Z M 22.011719 -37.863281 L 33.351562 -37.863281 C 33.011719 -37.863281 32.660156 -37.789062 32.300781 -37.632812 C 31.90625 -37.46875 31.574219 -37.238281 31.304688 -36.953125 C 31.078125 -36.707031 30.898438 -36.417969 30.777344 -36.089844 C 30.675781 -35.828125 30.628906 -35.585938 30.628906 -35.363281 L 30.628906 -36.109375 C 30.628906 -35.820312 30.6875 -35.519531 30.8125 -35.207031 C 30.945312 -34.878906 31.121094 -34.597656 31.34375 -34.367188 C 31.578125 -34.128906 31.871094 -33.933594 32.222656 -33.78125 C 32.601562 -33.617188 32.976562 -33.535156 33.351562 -33.535156 L 22.011719 -33.535156 L 22.011719 -40.066406 L 28.539062 -40.066406 L 28.539062 -31.335938 L 22.011719 -31.335938 Z M 15.480469 -24.808594 L 15.480469 -46.59375 L 33.351562 -46.59375 C 34.769531 -46.59375 36.117188 -46.320312 37.386719 -45.773438 C 38.636719 -45.234375 39.75 -44.460938 40.726562 -43.449219 C 41.695312 -42.449219 42.433594 -41.316406 42.9375 -40.054688 C 43.4375 -38.8125 43.683594 -37.496094 43.683594 -36.109375 L 43.683594 -35.363281 C 43.683594 -32.503906 42.738281 -30.058594 40.839844 -28.03125 C 39.851562 -26.972656 38.707031 -26.167969 37.402344 -25.617188 C 36.136719 -25.078125 34.785156 -24.808594 33.351562 -24.808594 Z M 22.011719 -18.464844 L 34.542969 -18.464844 C 34.207031 -18.464844 33.855469 -18.390625 33.492188 -18.234375 C 33.101562 -18.070312 32.769531 -17.839844 32.5 -17.554688 C 32.269531 -17.308594 32.09375 -17.019531 31.96875 -16.691406 C 31.871094 -16.429688 31.820312 -16.1875 31.820312 -15.964844 L 31.820312 -16.710938 C 31.820312 -16.492188 31.871094 -16.25 31.96875 -15.988281 C 32.09375 -15.65625 32.269531 -15.371094 32.5 -15.125 C 32.769531 -14.835938 33.101562 -14.609375 33.492188 -14.441406 C 33.855469 -14.289062 34.207031 -14.210938 34.542969 -14.210938 L 22.011719 -14.210938 L 22.011719 -20.742188 L 28.539062 -20.742188 L 28.539062 -11.9375 L 22.011719 -11.9375 Z M 15.480469 -5.410156 L 15.480469 -27.269531 L 34.542969 -27.269531 C 35.976562 -27.269531 37.328125 -27 38.597656 -26.460938 C 39.898438 -25.910156 41.046875 -25.105469 42.035156 -24.046875 C 43.929688 -22.019531 44.878906 -19.574219 44.878906 -16.710938 L 44.878906 -15.964844 C 44.878906 -13.105469 43.929688 -10.660156 42.035156 -8.632812 C 41.046875 -7.574219 39.898438 -6.769531 38.597656 -6.21875 C 37.328125 -5.679688 35.976562 -5.410156 34.542969 -5.410156 Z M 15.480469 -5.410156 "/></g></g></g><g fill="#1800ad" fill-opacity="1"><g transform="translate(148.120907, 244.550199)"><g><path d="M 26.609375 1.046875 L 25.636719 -4.921875 L 32.082031 -5.96875 L 37.378906 -2.152344 C 35.195312 0.878906 32.351562 3.242188 28.851562 4.941406 C 25.441406 6.597656 21.839844 7.425781 18.054688 7.425781 C 11.542969 7.425781 6.496094 5.4375 2.910156 1.464844 C -0.496094 -2.316406 -2.203125 -7.429688 -2.203125 -13.878906 L -2.203125 -45.921875 L 25.703125 -45.921875 L 25.703125 -15.667969 C 25.703125 -15.554688 25.707031 -15.460938 25.71875 -15.386719 L 25.71875 -15.378906 C 25.667969 -15.53125 25.578125 -15.6875 25.445312 -15.839844 C 25.203125 -16.125 24.90625 -16.339844 24.554688 -16.488281 C 24.429688 -16.539062 24.316406 -16.574219 24.207031 -16.59375 C 24.183594 -16.597656 24.164062 -16.601562 24.144531 -16.601562 C 24.148438 -16.601562 24.160156 -16.601562 24.171875 -16.601562 C 24.246094 -16.601562 24.300781 -16.605469 24.335938 -16.609375 C 24.316406 -16.605469 24.289062 -16.597656 24.25 -16.582031 C 24.121094 -16.53125 24.015625 -16.464844 23.9375 -16.378906 C 23.910156 -16.351562 23.882812 -16.300781 23.855469 -16.230469 C 23.84375 -16.199219 23.835938 -16.175781 23.832031 -16.15625 C 23.835938 -16.179688 23.835938 -16.214844 23.835938 -16.265625 L 23.835938 -45.921875 L 51.742188 -45.921875 L 51.742188 6.527344 L 27.5 6.527344 Z M 39.496094 -1.046875 L 33.050781 0 L 33.050781 -6.527344 L 45.214844 -6.527344 L 45.214844 0 L 38.683594 0 L 38.683594 -39.394531 L 45.214844 -39.394531 L 45.214844 -32.867188 L 30.367188 -32.867188 L 30.367188 -39.394531 L 36.894531 -39.394531 L 36.894531 -16.265625 C 36.894531 -12.773438 35.71875 -9.800781 33.363281 -7.34375 C 32.140625 -6.070312 30.71875 -5.105469 29.097656 -4.457031 C 27.574219 -3.847656 25.933594 -3.542969 24.171875 -3.542969 C 22.511719 -3.542969 20.972656 -3.835938 19.558594 -4.421875 C 17.976562 -5.078125 16.628906 -6.058594 15.515625 -7.363281 C 13.601562 -9.601562 12.644531 -12.371094 12.644531 -15.667969 L 12.644531 -39.394531 L 19.175781 -39.394531 L 19.175781 -32.867188 L 4.328125 -32.867188 L 4.328125 -39.394531 L 10.855469 -39.394531 L 10.855469 -13.878906 C 10.855469 -10.773438 11.441406 -8.578125 12.609375 -7.28125 C 13.597656 -6.183594 15.414062 -5.632812 18.054688 -5.632812 C 19.839844 -5.632812 21.539062 -6.023438 23.152344 -6.804688 C 24.675781 -7.546875 25.886719 -8.539062 26.785156 -9.785156 L 36 -22.566406 Z M 39.496094 -1.046875 "/></g></g></g><g fill="#1800ad" fill-opacity="1"><g transform="translate(197.880124, 244.550199)"><g><path d="M 24.84375 -46.816406 C 32.667969 -46.816406 39.136719 -45.054688 44.257812 -41.523438 C 47.21875 -39.480469 49.449219 -36.878906 50.953125 -33.71875 C 52.375 -30.722656 53.085938 -27.320312 53.085938 -23.503906 L 53.085938 -16.972656 L 25.628906 -16.972656 L 25.628906 -23.503906 C 25.628906 -23.855469 25.605469 -24.09375 25.5625 -24.210938 C 25.621094 -24.050781 25.738281 -23.890625 25.914062 -23.730469 C 25.992188 -23.65625 26.074219 -23.597656 26.148438 -23.554688 L 26.132812 -23.554688 C 25.839844 -23.644531 25.414062 -23.6875 24.84375 -23.6875 C 24.433594 -23.6875 24.148438 -23.65625 23.988281 -23.597656 C 24.089844 -23.632812 24.191406 -23.714844 24.292969 -23.832031 C 24.324219 -23.867188 24.34375 -23.894531 24.351562 -23.910156 C 24.324219 -23.855469 24.292969 -23.773438 24.261719 -23.660156 C 24.128906 -23.199219 24.0625 -22.574219 24.0625 -21.785156 L 24.0625 -17.535156 C 24.0625 -16.785156 24.125 -16.199219 24.257812 -15.773438 C 24.285156 -15.679688 24.308594 -15.613281 24.332031 -15.570312 C 24.320312 -15.59375 24.296875 -15.625 24.261719 -15.664062 C 24.179688 -15.753906 24.109375 -15.8125 24.058594 -15.832031 C 24.285156 -15.746094 24.648438 -15.707031 25.144531 -15.707031 C 25.773438 -15.707031 26.253906 -15.757812 26.59375 -15.859375 C 26.628906 -15.867188 26.65625 -15.878906 26.679688 -15.886719 L 26.671875 -15.882812 C 26.613281 -15.851562 26.546875 -15.804688 26.476562 -15.742188 C 26.316406 -15.59375 26.207031 -15.449219 26.152344 -15.300781 C 26.203125 -15.429688 26.226562 -15.675781 26.226562 -16.042969 L 26.226562 -22.570312 L 53.085938 -22.570312 L 53.085938 -16.042969 C 53.085938 -12.207031 52.378906 -8.789062 50.960938 -5.78125 C 49.464844 -2.601562 47.238281 0.0195312 44.277344 2.078125 C 39.152344 5.640625 32.675781 7.425781 24.84375 7.425781 C 16.28125 7.425781 9.414062 5.136719 4.25 0.558594 C 1.488281 -1.886719 -0.574219 -4.886719 -1.9375 -8.445312 C -3.207031 -11.757812 -3.84375 -15.507812 -3.84375 -19.695312 C -3.84375 -23.886719 -3.207031 -27.636719 -1.9375 -30.949219 C -0.574219 -34.503906 1.488281 -37.507812 4.25 -39.953125 C 9.414062 -44.53125 16.28125 -46.816406 24.84375 -46.816406 Z M 24.84375 -33.761719 C 19.582031 -33.761719 15.605469 -32.566406 12.910156 -30.179688 C 10.445312 -27.996094 9.214844 -24.503906 9.214844 -19.695312 C 9.214844 -14.890625 10.445312 -11.398438 12.910156 -9.214844 C 15.605469 -6.828125 19.582031 -5.632812 24.84375 -5.632812 C 29.945312 -5.632812 33.9375 -6.636719 36.820312 -8.640625 C 37.867188 -9.371094 38.644531 -10.269531 39.148438 -11.34375 C 39.734375 -12.589844 40.027344 -14.15625 40.027344 -16.042969 L 46.558594 -16.042969 L 46.558594 -9.511719 L 32.753906 -9.511719 L 32.753906 -16.042969 L 39.28125 -16.042969 C 39.28125 -14.117188 38.988281 -12.363281 38.402344 -10.773438 C 37.714844 -8.910156 36.652344 -7.335938 35.222656 -6.046875 C 32.714844 -3.78125 29.351562 -2.648438 25.144531 -2.648438 C 23.105469 -2.648438 21.246094 -2.953125 19.570312 -3.566406 C 17.617188 -4.285156 15.960938 -5.382812 14.609375 -6.871094 C 12.207031 -9.507812 11.003906 -13.0625 11.003906 -17.535156 L 11.003906 -21.785156 C 11.003906 -26.222656 12.144531 -29.753906 14.429688 -32.386719 C 15.75 -33.910156 17.375 -35.042969 19.304688 -35.785156 C 20.972656 -36.425781 22.820312 -36.746094 24.84375 -36.746094 C 28.976562 -36.746094 32.277344 -35.613281 34.746094 -33.347656 C 36.136719 -32.066406 37.167969 -30.507812 37.835938 -28.667969 C 38.402344 -27.109375 38.6875 -25.386719 38.6875 -23.503906 L 32.15625 -23.503906 L 32.15625 -30.03125 L 46.558594 -30.03125 L 46.558594 -23.503906 L 40.027344 -23.503906 C 40.027344 -25.355469 39.738281 -26.894531 39.15625 -28.117188 C 38.65625 -29.167969 37.886719 -30.054688 36.84375 -30.773438 C 33.957031 -32.765625 29.957031 -33.761719 24.84375 -33.761719 Z M 24.84375 -33.761719 "/></g></g></g><g fill="#1800ad" fill-opacity="1"><g transform="translate(246.370969, 244.550199)"><g><path d="M 31.933594 -45.921875 L 64.070312 -45.921875 L 39.507812 -19.09375 L 34.695312 -23.503906 L 40.207031 -27 L 61.496094 6.527344 L 29.097656 6.527344 L 18.90625 -10.089844 L 24.472656 -13.503906 L 29.019531 -8.820312 L 23.871094 -3.820312 L 19.324219 -8.503906 L 25.851562 -8.503906 L 25.851562 6.527344 L -2.050781 6.527344 L -2.050781 -60.695312 L 25.851562 -60.695312 L 25.851562 -24.324219 L 19.324219 -24.324219 L 14.316406 -28.511719 L 28.882812 -45.921875 Z M 31.933594 -32.867188 L 31.933594 -39.394531 L 36.941406 -35.203125 L 12.796875 -6.34375 L 12.796875 -54.167969 L 19.324219 -54.167969 L 19.324219 -47.636719 L 4.476562 -47.636719 L 4.476562 -54.167969 L 11.003906 -54.167969 L 11.003906 0 L 4.476562 0 L 4.476562 -6.527344 L 19.324219 -6.527344 L 19.324219 0 L 12.796875 0 L 12.796875 -11.265625 L 25.773438 -23.871094 L 38.320312 -3.414062 L 32.753906 0 L 32.753906 -6.527344 L 49.617188 -6.527344 L 49.617188 0 L 44.105469 3.5 L 26.503906 -24.222656 L 44.425781 -43.800781 L 49.242188 -39.394531 L 49.242188 -32.867188 Z M 31.933594 -32.867188 "/></g></g></g><g fill="#ffffff" fill-opacity="1"><g transform="translate(90.080917, 140.300206)"><g><path d="M 39.6875 -51.328125 C 42.28125 -51.328125 44.65625 -50.789062 46.8125 -49.71875 C 48.976562 -48.65625 50.695312 -47.148438 51.96875 -45.203125 C 53.238281 -43.265625 53.875 -41.101562 53.875 -38.71875 C 53.875 -32.40625 51.007812 -28.425781 45.28125 -26.78125 L 45.28125 -26.484375 C 51.800781 -24.992188 55.0625 -20.71875 55.0625 -13.65625 C 55.0625 -10.96875 54.398438 -8.59375 53.078125 -6.53125 C 51.765625 -4.46875 49.960938 -2.863281 47.671875 -1.71875 C 45.390625 -0.570312 42.878906 0 40.140625 0 L 5.515625 0 L 5.515625 -51.328125 Z M 22.015625 -31.328125 L 33.34375 -31.328125 C 34.4375 -31.328125 35.34375 -31.710938 36.0625 -32.484375 C 36.789062 -33.265625 37.15625 -34.222656 37.15625 -35.359375 L 37.15625 -36.109375 C 37.15625 -37.203125 36.78125 -38.132812 36.03125 -38.90625 C 35.289062 -39.675781 34.394531 -40.0625 33.34375 -40.0625 L 22.015625 -40.0625 Z M 22.015625 -11.9375 L 34.546875 -11.9375 C 35.640625 -11.9375 36.546875 -12.320312 37.265625 -13.09375 C 37.984375 -13.863281 38.34375 -14.820312 38.34375 -15.96875 L 38.34375 -16.71875 C 38.34375 -17.851562 37.984375 -18.804688 37.265625 -19.578125 C 36.546875 -20.347656 35.640625 -20.734375 34.546875 -20.734375 L 22.015625 -20.734375 Z M 22.015625 -11.9375 "/></g></g></g><g fill="#ffffff" fill-opacity="1"><g transform="translate(148.120907, 140.300206)"><g><path d="M 33.046875 0 L 32.078125 -5.96875 C 30.535156 -3.832031 28.507812 -2.15625 26 -0.9375 C 23.488281 0.28125 20.84375 0.890625 18.0625 0.890625 C 13.476562 0.890625 10.039062 -0.375 7.75 -2.90625 C 5.46875 -5.445312 4.328125 -9.101562 4.328125 -13.875 L 4.328125 -39.390625 L 19.171875 -39.390625 L 19.171875 -15.671875 C 19.171875 -13.972656 19.601562 -12.613281 20.46875 -11.59375 C 21.34375 -10.582031 22.578125 -10.078125 24.171875 -10.078125 C 26.015625 -10.078125 27.503906 -10.671875 28.640625 -11.859375 C 29.785156 -13.054688 30.359375 -14.523438 30.359375 -16.265625 L 30.359375 -39.390625 L 45.21875 -39.390625 L 45.21875 0 Z M 33.046875 0 "/></g></g></g><g fill="#ffffff" fill-opacity="1"><g transform="translate(197.880124, 140.300206)"><g><path d="M 24.84375 -40.28125 C 31.3125 -40.28125 36.546875 -38.898438 40.546875 -36.140625 C 44.554688 -33.378906 46.5625 -29.164062 46.5625 -23.5 L 32.15625 -23.5 C 32.15625 -27.976562 29.71875 -30.21875 24.84375 -30.21875 C 19.96875 -30.21875 17.53125 -27.40625 17.53125 -21.78125 L 17.53125 -17.53125 C 17.53125 -11.957031 20.066406 -9.171875 25.140625 -9.171875 C 30.210938 -9.171875 32.75 -11.460938 32.75 -16.046875 L 46.5625 -16.046875 C 46.5625 -10.316406 44.554688 -6.0625 40.546875 -3.28125 C 36.546875 -0.5 31.3125 0.890625 24.84375 0.890625 C 17.925781 0.890625 12.503906 -0.847656 8.578125 -4.328125 C 4.648438 -7.804688 2.6875 -12.929688 2.6875 -19.703125 C 2.6875 -26.460938 4.648438 -31.582031 8.578125 -35.0625 C 12.503906 -38.539062 17.925781 -40.28125 24.84375 -40.28125 Z M 24.84375 -40.28125 "/></g></g></g><g fill="#ffffff" fill-opacity="1"><g transform="translate(246.370969, 140.300206)"><g><path d="M 31.9375 -39.390625 L 49.234375 -39.390625 L 34.6875 -23.5 L 49.609375 0 L 32.75 0 L 24.46875 -13.5 L 19.328125 -8.5 L 19.328125 0 L 4.46875 0 L 4.46875 -54.171875 L 19.328125 -54.171875 L 19.328125 -24.328125 Z M 31.9375 -39.390625 "/></g></g></g><g fill="#ffffff" fill-opacity="1"><g transform="translate(90.080917, 244.550199)"><g><path d="M 39.6875 -51.328125 C 42.28125 -51.328125 44.65625 -50.789062 46.8125 -49.71875 C 48.976562 -48.65625 50.695312 -47.148438 51.96875 -45.203125 C 53.238281 -43.265625 53.875 -41.101562 53.875 -38.71875 C 53.875 -32.40625 51.007812 -28.425781 45.28125 -26.78125 L 45.28125 -26.484375 C 51.800781 -24.992188 55.0625 -20.71875 55.0625 -13.65625 C 55.0625 -10.96875 54.398438 -8.59375 53.078125 -6.53125 C 51.765625 -4.46875 49.960938 -2.863281 47.671875 -1.71875 C 45.390625 -0.570312 42.878906 0 40.140625 0 L 5.515625 0 L 5.515625 -51.328125 Z M 22.015625 -31.328125 L 33.34375 -31.328125 C 34.4375 -31.328125 35.34375 -31.710938 36.0625 -32.484375 C 36.789062 -33.265625 37.15625 -34.222656 37.15625 -35.359375 L 37.15625 -36.109375 C 37.15625 -37.203125 36.78125 -38.132812 36.03125 -38.90625 C 35.289062 -39.675781 34.394531 -40.0625 33.34375 -40.0625 L 22.015625 -40.0625 Z M 22.015625 -11.9375 L 34.546875 -11.9375 C 35.640625 -11.9375 36.546875 -12.320312 37.265625 -13.09375 C 37.984375 -13.863281 38.34375 -14.820312 38.34375 -15.96875 L 38.34375 -16.71875 C 38.34375 -17.851562 37.984375 -18.804688 37.265625 -19.578125 C 36.546875 -20.347656 35.640625 -20.734375 34.546875 -20.734375 L 22.015625 -20.734375 Z M 22.015625 -11.9375 "/></g></g></g><g fill="#ffffff" fill-opacity="1"><g transform="translate(148.120907, 244.550199)"><g><path d="M 33.046875 0 L 32.078125 -5.96875 C 30.535156 -3.832031 28.507812 -2.15625 26 -0.9375 C 23.488281 0.28125 20.84375 0.890625 18.0625 0.890625 C 13.476562 0.890625 10.039062 -0.375 7.75 -2.90625 C 5.46875 -5.445312 4.328125 -9.101562 4.328125 -13.875 L 4.328125 -39.390625 L 19.171875 -39.390625 L 19.171875 -15.671875 C 19.171875 -13.972656 19.601562 -12.613281 20.46875 -11.59375 C 21.34375 -10.582031 22.578125 -10.078125 24.171875 -10.078125 C 26.015625 -10.078125 27.503906 -10.671875 28.640625 -11.859375 C 29.785156 -13.054688 30.359375 -14.523438 30.359375 -16.265625 L 30.359375 -39.390625 L 45.21875 -39.390625 L 45.21875 0 Z M 33.046875 0 "/></g></g></g><g fill="#ffffff" fill-opacity="1"><g transform="translate(197.880124, 244.550199)"><g><path d="M 24.84375 -40.28125 C 31.3125 -40.28125 36.546875 -38.898438 40.546875 -36.140625 C 44.554688 -33.378906 46.5625 -29.164062 46.5625 -23.5 L 32.15625 -23.5 C 32.15625 -27.976562 29.71875 -30.21875 24.84375 -30.21875 C 19.96875 -30.21875 17.53125 -27.40625 17.53125 -21.78125 L 17.53125 -17.53125 C 17.53125 -11.957031 20.066406 -9.171875 25.140625 -9.171875 C 30.210938 -9.171875 32.75 -11.460938 32.75 -16.046875 L 46.5625 -16.046875 C 46.5625 -10.316406 44.554688 -6.0625 40.546875 -3.28125 C 36.546875 -0.5 31.3125 0.890625 24.84375 0.890625 C 17.925781 0.890625 12.503906 -0.847656 8.578125 -4.328125 C 4.648438 -7.804688 2.6875 -12.929688 2.6875 -19.703125 C 2.6875 -26.460938 4.648438 -31.582031 8.578125 -35.0625 C 12.503906 -38.539062 17.925781 -40.28125 24.84375 -40.28125 Z M 24.84375 -40.28125 "/></g></g></g><g fill="#ffffff" fill-opacity="1"><g transform="translate(246.370969, 244.550199)"><g><path d="M 31.9375 -39.390625 L 49.234375 -39.390625 L 34.6875 -23.5 L 49.609375 0 L 32.75 0 L 24.46875 -13.5 L 19.328125 -8.5 L 19.328125 0 L 4.46875 0 L 4.46875 -54.171875 L 19.328125 -54.171875 L 19.328125 -24.328125 Z M 31.9375 -39.390625 "/></g></g></g></svg>