<svg xmlns="http://www.w3.org/2000/svg" viewBox="0 0 1600 900" role="img" aria-labelledby="title desc">
  <title id="title">Lorem Ipsum Brand Demo Image</title>
  <desc id="desc">Abstract brand showcase with layered panels.</desc>
  <defs>
    <linearGradient id="bg" x1="0" y1="1" x2="1" y2="0">
      <stop offset="0" stop-color="#0c4a6e"/>
      <stop offset="0.45" stop-color="#1e293b"/>
      <stop offset="1" stop-color="#9a3412"/>
    </linearGradient>
  </defs>
  <rect width="1600" height="900" fill="url(#bg)"/>
  <rect x="150" y="150" width="420" height="570" rx="26" fill="#fff" opacity="0.16"/>
  <rect x="610" y="90" width="370" height="690" rx="26" fill="#fff" opacity="0.2"/>
  <rect x="1020" y="190" width="430" height="510" rx="26" fill="#fff" opacity="0.16"/>
  <g fill="#fff">
    <circle cx="360" cy="330" r="78" opacity="0.5"/>
    <circle cx="795" cy="330" r="90" opacity="0.55"/>
    <circle cx="1235" cy="330" r="78" opacity="0.5"/>
  </g>
  <g stroke="#fdba74" stroke-width="16" fill="none" opacity="0.88">
    <path d="M285 510h150"/>
    <path d="M705 510h180"/>
    <path d="M1160 510h150"/>
  </g>
  <g fill="#e2e8f0" opacity="0.72">
    <rect x="250" y="560" width="220" height="16" rx="8"/>
    <rect x="288" y="602" width="145" height="16" rx="8"/>
    <rect x="685" y="560" width="230" height="16" rx="8"/>
    <rect x="724" y="602" width="155" height="16" rx="8"/>
    <rect x="1126" y="560" width="218" height="16" rx="8"/>
    <rect x="1166" y="602" width="140" height="16" rx="8"/>
  </g>
</svg>
